<svg xmlns="http://www.w3.org/2000/svg" width="100" height="35" viewBox="0 0 100 35"><g transform="translate(-2076 -1785)"><path d="M2077.074,1799.508h.713a1.069,1.069,0,0,1,1.065,1.066v3.566a1.069,1.069,0,0,1-1.065,1.066h-.713a1.07,1.07,0,0,1-1.074-1.066v-3.566A1.071,1.071,0,0,1,2077.074,1799.508Zm48.213,4.664c2.221,0,2.55-.353,2.55,1.951v9.574a1.861,1.861,0,0,1-3.689-.074v-7.951a1.07,1.07,0,0,0-1.074-1.066h-.7a1.071,1.071,0,0,0-1.074,1.066v8.131c-.008.123-.016.246-.016.369,0,2.115,2.115,3.828,4.721,3.828s4.721-1.713,4.721-3.828a2.682,2.682,0,0,0-.033-.451l-.057-14.041c0-1.541-2.729-1.074-3.836-1.074h-2.648v-11.221a1.4,1.4,0,0,1,1.385-1.172h.935a1.406,1.406,0,0,1,1.4,1.4v.18a1.354,1.354,0,0,0-.032.262v7.484a1.07,1.07,0,0,0,1.073,1.066h.713a1.063,1.063,0,0,0,1.065-1.066v-7.484a1.05,1.05,0,0,0-.073-.393,3.157,3.157,0,0,0,.106-.828c0-2.115-2.115-3.836-4.721-3.836s-4.721,1.721-4.721,3.836v.172c.008.057.008.115.016.172v7.877c0,3.041-.9,7.049,2.566,7.139C2124.631,1804.221,2124.844,1804.172,2125.287,1804.172Zm48.927-4.492h.713a1.077,1.077,0,0,1,1.074,1.074v3.205a1.078,1.078,0,0,1-1.074,1.074h-.713a1.076,1.076,0,0,1-1.066-1.074v-3.205A1.076,1.076,0,0,1,2174.213,1799.68Zm-26.9,4.967a1.077,1.077,0,0,1,1.074-1.074h.713a1.076,1.076,0,0,1,1.066,1.074v5.377a4.546,4.546,0,0,1-4.852,4.729,5.222,5.222,0,0,1-3.64-1.385,4.207,4.207,0,0,1-.869-2.8l-.115-8.066c-.041-3.09.2-5.91.147-7.106-.147-2.779,1.123-5.189,4.475-5.189s4.852,2.107,4.852,5.189v4.992a1.076,1.076,0,0,1-1.066,1.074h-.713a1.077,1.077,0,0,1-1.074-1.074l-.131-5.574a1.406,1.406,0,0,0-1.4-1.4h-.615c-1.771,0-1.475,1.385-1.475,1.984v9.484c0,1.541-.713,6.664,1.156,6.664h.934a1.408,1.408,0,0,0,1.4-1.41Zm-29.8,7.877c.008.139.016.287.016.434a4.658,4.658,0,0,1-9.271,0,5.248,5.248,0,0,1,.057-.811v-20.664a1.071,1.071,0,0,1,1.074-1.066h.713a1.069,1.069,0,0,1,1.065,1.066v20.344a1.9,1.9,0,0,0,3.557.287v-23.123a1.078,1.078,0,0,1,1.074-1.074h.705a1.078,1.078,0,0,1,1.073,1.074v23.172A1.08,1.08,0,0,1,2117.517,1812.525Zm45.861-11.885a2.011,2.011,0,0,0,2.975,0l.353-1.312a1.076,1.076,0,0,1,1.066-1.074h.713a1.077,1.077,0,0,1,1.074,1.074v6.418a1.076,1.076,0,0,1-1.074,1.066h-.713a1.074,1.074,0,0,1-1.066-1.066l-.238-1.074c0-1.516-3.59-1.8-3.59,1.033v1.82a1.07,1.07,0,0,1-1.065,1.074h-.713a1.077,1.077,0,0,1-1.074-1.074c0-1.041.484-5.893-1.139-5.877l-1.074.008c-1.311.008-1.344,1.86-1.344,2.844v5.525a1.068,1.068,0,0,1-1.065,1.066h-.713a1.076,1.076,0,0,1-1.074-1.066v-15.09a1.077,1.077,0,0,1,1.074-1.074h.713a1.07,1.07,0,0,1,1.065,1.074v3.238c0,.59.885,1.18,1.525,1.18h.713c.992,0,1.1-1.057,1.32-1.811a1.076,1.076,0,0,1,1.074-1.066h.713a1.069,1.069,0,0,1,1.065,1.066Zm-69.91-6.664a5.023,5.023,0,0,1,2.533.664,4.62,4.62,0,0,1,4.172-2.312c2.5,0,4.525,1.894,4.525,3.8,0,.672-.025,1.27-.025,1.951v13.541a1.076,1.076,0,0,1-1.066,1.074h-.713a1.077,1.077,0,0,1-1.074-1.074c0-4.869.025-9.746.025-14.615,0-.59-.844-1.115-1.435-1.115h-.713c-.59,0-1.4.565-1.4,1.156,0,4.32-.1,8.639-.1,12.975a1.076,1.076,0,0,1-1.074,1.066h-.713a1.074,1.074,0,0,1-1.066-1.066l-.1-11.7a1.39,1.39,0,0,0-1.336-1.139h-.713c-.59,0-1.328.484-1.328,1.066l-.017,9.09a1.076,1.076,0,0,1-1.065,1.074h-.713a1.077,1.077,0,0,1-1.074-1.074v-1.59c.008-.853-.287-2.221-1.369-2.221h-.713c-.558,0-1.59,1.115-1.59,1.59v.8a1.071,1.071,0,0,1-1.066,1.074h-.713a1.078,1.078,0,0,1-1.074-1.074v-6.59a1.077,1.077,0,0,1,1.074-1.074h.713a1.071,1.071,0,0,1,1.066,1.074c0,1.025.3,1.656,1.549,1.779,2.065.213,2.123-.451,2.123-2.492a1.007,1.007,0,0,1,.049-.32,4.312,4.312,0,0,1-.033-.574C2089.017,1795.853,2091.009,1793.976,2093.468,1793.976Zm41.893-6.058h.713a1.078,1.078,0,0,1,1.074,1.074v2.131a1.07,1.07,0,0,1-1.074,1.065h-.713a1.063,1.063,0,0,1-1.065-1.065v-2.131A1.07,1.07,0,0,1,2135.361,1787.918Zm0,6.418h.713a1.076,1.076,0,0,1,1.074,1.066v20.328a1.076,1.076,0,0,1-1.074,1.066h-.713a1.068,1.068,0,0,1-1.065-1.066V1795.4A1.069,1.069,0,0,1,2135.361,1794.336Z" transform="translate(0 0)" fill="#4ad1d8" fill-rule="evenodd"/></g></svg>